<svg
  width="32"
  height="32"
  viewBox="0 0 32 32"
  fill="none"
  xmlns="http://www.w3.org/2000/svg"
>
  <!-- Background circle with slight gradient -->
  <rect width="32" height="32" rx="16" fill="url(#favicon-faviconBg)" />
  
  <!-- Main outer ring with gradient -->
  <circle 
    cx="16" 
    cy="16" 
    r="12" 
    stroke="url(#favicon-moonsetGradient)" 
    strokeWidth="2" 
    strokeLinecap="round" 
    filter="url(#favicon-moonGlow)" 
  />
  
  <!-- Crescent shape -->
  <path
    d="M20.5 11.5C19 11.5 16 12.67 16 17C16 21.33 19 22.5 20.5 22.5C17.5 22.5 11.5 21 11.5 17C11.5 13 17.5 11.5 20.5 11.5Z"
    fill="url(#favicon-moonInnerGradient)"
    filter="url(#favicon-moonInnerGlow)"
  />
  
  <!-- Star accents -->
  <circle cx="24" cy="8" r="1" fill="#ffffff" />
  <circle cx="21" cy="13" r="0.6" fill="#ffffff" opacity="0.8" />
  <circle cx="23" cy="18" r="0.5" fill="#ffffff" opacity="0.6" />
  
  <!-- Horizontal accent line -->
  <path 
    d="M8 16h5" 
    stroke="url(#favicon-accentGradient)" 
    strokeWidth="1.5"
    strokeLinecap="round"
    filter="url(#favicon-lineGlow)"
  />
  
  <!-- Gradient and filter definitions -->
  <defs>
    <linearGradient id="favicon-faviconBg" x1="0" y1="0" x2="32" y2="32" gradientUnits="userSpaceOnUse">
      <stop offset="0" stopColor="#0F172A" />
      <stop offset="1" stopColor="#1E293B" />
    </linearGradient>
    
    <linearGradient id="favicon-moonsetGradient" x1="4" y1="16" x2="28" y2="16" gradientUnits="userSpaceOnUse">
      <stop offset="0" stopColor="#4ADE80" />
      <stop offset="0.5" stopColor="#60EFFF" />
      <stop offset="1" stopColor="#4ADE80" />
    </linearGradient>
    
    <linearGradient id="favicon-moonInnerGradient" x1="11.5" y1="17" x2="20.5" y2="17" gradientUnits="userSpaceOnUse">
      <stop offset="0" stopColor="#4ADE80" />
      <stop offset="1" stopColor="#60EFFF" />
    </linearGradient>
    
    <linearGradient id="favicon-accentGradient" x1="8" y1="16" x2="13" y2="16" gradientUnits="userSpaceOnUse">
      <stop offset="0" stopColor="#4ADE80" />
      <stop offset="1" stopColor="#60EFFF" />
    </linearGradient>
    
    <filter id="favicon-moonGlow" x="-50%" y="-50%" width="200%" height="200%">
      <feGaussianBlur stdDeviation="1.5" result="blur" />
      <feComposite in="SourceGraphic" in2="blur" operator="over" />
    </filter>
    
    <filter id="favicon-moonInnerGlow" x="-50%" y="-50%" width="200%" height="200%">
      <feGaussianBlur stdDeviation="1" result="blur" />
      <feComposite in="SourceGraphic" in2="blur" operator="over" />
    </filter>
    
    <filter id="favicon-lineGlow" x="-50%" y="-50%" width="200%" height="200%">
      <feGaussianBlur stdDeviation="0.8" result="blur" />
      <feComposite in="SourceGraphic" in2="blur" operator="over" />
    </filter>
  </defs>
</svg> 